<?xml version="1.0" encoding="UTF-8" standalone="no"?><svg xmlns="http://www.w3.org/2000/svg" xmlns:xlink="http://www.w3.org/1999/xlink" contentStyleType="text/css" height="740px" preserveAspectRatio="none" style="width:588px;height:740px;background:#FFFFFF;" version="1.1" viewBox="0 0 588 740" width="588px" zoomAndPan="magnify"><defs/><g><!--MD5=[e73183ae97ca62d81f0bf19921e7c95e]
class Prenda--><g id="elem_Prenda"><rect codeLine="2" fill="#F1F1F1" height="118.4375" id="Prenda" rx="2.5" ry="2.5" style="stroke:#181818;stroke-width:0.5;" width="83" x="260.5" y="346"/><ellipse cx="277.75" cy="362" fill="#ADD1B2" rx="11" ry="11" style="stroke:#181818;stroke-width:1.0;"/><path d="M279.75,358.5 Q279.9531,358 280.1875,357.75 Q280.4219,357.5 280.6875,357.5 Q281.1563,357.5 281.4531,357.7813 Q281.75,358.0625 281.75,358.7188 L281.75,360.2813 Q281.75,360.9375 281.4688,361.2188 Q281.1875,361.5 280.75,361.5 Q280.3594,361.5 280.1094,361.3281 Q279.8594,361.1563 279.75,360.7031 Q279.7031,360.3906 279.5313,360.2188 Q279.2188,359.8906 278.6563,359.7031 Q278.0938,359.5 277.5313,359.5 Q276.8281,359.5 276.2344,359.7813 Q275.6563,360.0625 275.2031,360.6875 Q274.75,361.3125 274.75,362.1719 L274.75,363.0938 Q274.75,364.125 275.5938,364.8125 Q276.4375,365.5 277.9375,365.5 Q278.8281,365.5 279.4531,365.2969 Q279.8125,365.1875 280.2188,364.8281 Q280.4844,364.625 280.625,364.5625 Q280.7656,364.5 280.9375,364.5 Q281.2656,364.5 281.5,364.7656 Q281.75,365.0156 281.75,365.375 Q281.75,365.7188 281.4063,366.125 Q280.9063,366.7188 280.1094,367.0469 Q279.0625,367.5 277.7813,367.5 Q276.2813,367.5 275.0781,366.9063 Q274.1094,366.4375 273.4219,365.4219 Q272.75,364.4063 272.75,363.2031 L272.75,362.1094 Q272.75,360.8594 273.3438,359.7656 Q273.9531,358.6719 275,358.0938 Q276.0625,357.5 277.25,357.5 Q277.9688,357.5 278.5938,357.75 Q279.2188,358 279.75,358.5 Z " fill="#000000"/><text fill="#000000" font-family="sans-serif" font-size="14" lengthAdjust="spacing" textLength="46" x="292.25" y="367.7285">Prenda</text><line style="stroke:#181818;stroke-width:0.5;" x1="261.5" x2="342.5" y1="378" y2="378"/><text fill="#000000" font-family="sans-serif" font-size="14" lengthAdjust="spacing" textLength="43" x="266.5" y="396.5332">estado</text><text fill="#000000" font-family="sans-serif" font-size="14" lengthAdjust="spacing" textLength="71" x="266.5" y="414.1426">precioBase</text><text fill="#000000" font-family="sans-serif" font-size="14" lengthAdjust="spacing" textLength="23" x="266.5" y="431.752">tipo</text><line style="stroke:#181818;stroke-width:0.5;" x1="261.5" x2="342.5" y1="438.8281" y2="438.8281"/><text fill="#000000" font-family="sans-serif" font-size="14" lengthAdjust="spacing" textLength="49" x="266.5" y="457.3613">precio()</text></g><!--MD5=[d8933eb2ae217ae3c21bf6e2973c277f]
class Estado--><g id="elem_Estado"><rect codeLine="10" fill="#F1F1F1" height="65.6094" id="Estado" rx="2.5" ry="2.5" style="stroke:#181818;stroke-width:0.5;" width="163" x="220.5" y="524"/><ellipse cx="275.75" cy="540" fill="#B4A7E5" rx="11" ry="11" style="stroke:#181818;stroke-width:1.0;"/><path d="M276.75,537 L276.75,543 L278.75,543 L279.2344,543 L279.75,543.625 L279.75,544 L279.75,544.375 L279.2344,545 L278.75,545 L272.75,545 L272.2656,545 L271.75,544.375 L271.75,544 L271.75,543.625 L272.2656,543 L272.75,543 L274.75,543 L274.75,537 L272.75,537 L272.2656,537 L271.75,536.375 L271.75,536 L271.75,535.625 L272.2656,535 L272.75,535 L278.75,535 L279.2344,535 L279.75,535.625 L279.75,536 L279.75,536.375 L279.2344,537 L278.75,537 L276.75,537 Z " fill="#000000"/><text fill="#000000" font-family="sans-serif" font-size="14" font-style="italic" lengthAdjust="spacing" textLength="44" x="296.25" y="545.7285">Estado</text><line style="stroke:#181818;stroke-width:0.5;" x1="221.5" x2="382.5" y1="556" y2="556"/><line style="stroke:#181818;stroke-width:0.5;" x1="221.5" x2="382.5" y1="564" y2="564"/><text fill="#000000" font-family="sans-serif" font-size="14" lengthAdjust="spacing" textLength="151" x="226.5" y="582.5332">precioFinal(precioBase)</text></g><!--MD5=[4cf58a5439fa7dbd22453247bbd4c595]
class Nueva--><g id="elem_Nueva"><rect codeLine="14" fill="#F1F1F1" height="65.6094" id="Nueva" rx="2.5" ry="2.5" style="stroke:#181818;stroke-width:0.5;" width="163" x="22.5" y="658.5"/><ellipse cx="79.75" cy="674.5" fill="#ADD1B2" rx="11" ry="11" style="stroke:#181818;stroke-width:1.0;"/><path d="M81.75,671 Q81.9531,670.5 82.1875,670.25 Q82.4219,670 82.6875,670 Q83.1563,670 83.4531,670.2813 Q83.75,670.5625 83.75,671.2188 L83.75,672.7813 Q83.75,673.4375 83.4688,673.7188 Q83.1875,674 82.75,674 Q82.3594,674 82.1094,673.8281 Q81.8594,673.6563 81.75,673.2031 Q81.7031,672.8906 81.5313,672.7188 Q81.2188,672.3906 80.6563,672.2031 Q80.0938,672 79.5313,672 Q78.8281,672 78.2344,672.2813 Q77.6563,672.5625 77.2031,673.1875 Q76.75,673.8125 76.75,674.6719 L76.75,675.5938 Q76.75,676.625 77.5938,677.3125 Q78.4375,678 79.9375,678 Q80.8281,678 81.4531,677.7969 Q81.8125,677.6875 82.2188,677.3281 Q82.4844,677.125 82.625,677.0625 Q82.7656,677 82.9375,677 Q83.2656,677 83.5,677.2656 Q83.75,677.5156 83.75,677.875 Q83.75,678.2188 83.4063,678.625 Q82.9063,679.2188 82.1094,679.5469 Q81.0625,680 79.7813,680 Q78.2813,680 77.0781,679.4063 Q76.1094,678.9375 75.4219,677.9219 Q74.75,676.9063 74.75,675.7031 L74.75,674.6094 Q74.75,673.3594 75.3438,672.2656 Q75.9531,671.1719 77,670.5938 Q78.0625,670 79.25,670 Q79.9688,670 80.5938,670.25 Q81.2188,670.5 81.75,671 Z " fill="#000000"/><text fill="#000000" font-family="sans-serif" font-size="14" lengthAdjust="spacing" textLength="40" x="100.25" y="680.2285">Nueva</text><line style="stroke:#181818;stroke-width:0.5;" x1="23.5" x2="184.5" y1="690.5" y2="690.5"/><line style="stroke:#181818;stroke-width:0.5;" x1="23.5" x2="184.5" y1="698.5" y2="698.5"/><text fill="#000000" font-family="sans-serif" font-size="14" lengthAdjust="spacing" textLength="151" x="28.5" y="717.0332">precioFinal(precioBase)</text></g><!--MD5=[73ad001b98dd01dedc7aab92789b3152]
class Promocion--><g id="elem_Promocion"><rect codeLine="18" fill="#F1F1F1" height="83.2188" id="Promocion" rx="2.5" ry="2.5" style="stroke:#181818;stroke-width:0.5;" width="163" x="220.5" y="650"/><ellipse cx="264.3" cy="666" fill="#ADD1B2" rx="11" ry="11" style="stroke:#181818;stroke-width:1.0;"/><path d="M266.3,662.5 Q266.5031,662 266.7375,661.75 Q266.9719,661.5 267.2375,661.5 Q267.7063,661.5 268.0031,661.7813 Q268.3,662.0625 268.3,662.7188 L268.3,664.2813 Q268.3,664.9375 268.0188,665.2188 Q267.7375,665.5 267.3,665.5 Q266.9094,665.5 266.6594,665.3281 Q266.4094,665.1563 266.3,664.7031 Q266.2531,664.3906 266.0813,664.2188 Q265.7688,663.8906 265.2063,663.7031 Q264.6438,663.5 264.0813,663.5 Q263.3781,663.5 262.7844,663.7813 Q262.2063,664.0625 261.7531,664.6875 Q261.3,665.3125 261.3,666.1719 L261.3,667.0938 Q261.3,668.125 262.1438,668.8125 Q262.9875,669.5 264.4875,669.5 Q265.3781,669.5 266.0031,669.2969 Q266.3625,669.1875 266.7688,668.8281 Q267.0344,668.625 267.175,668.5625 Q267.3156,668.5 267.4875,668.5 Q267.8156,668.5 268.05,668.7656 Q268.3,669.0156 268.3,669.375 Q268.3,669.7188 267.9563,670.125 Q267.4563,670.7188 266.6594,671.0469 Q265.6125,671.5 264.3313,671.5 Q262.8313,671.5 261.6281,670.9063 Q260.6594,670.4375 259.9719,669.4219 Q259.3,668.4063 259.3,667.2031 L259.3,666.1094 Q259.3,664.8594 259.8938,663.7656 Q260.5031,662.6719 261.55,662.0938 Q262.6125,661.5 263.8,661.5 Q264.5188,661.5 265.1438,661.75 Q265.7688,662 266.3,662.5 Z " fill="#000000"/><text fill="#000000" font-family="sans-serif" font-size="14" lengthAdjust="spacing" textLength="67" x="284.7" y="671.7285">Promocion</text><line style="stroke:#181818;stroke-width:0.5;" x1="221.5" x2="382.5" y1="682" y2="682"/><text fill="#000000" font-family="sans-serif" font-size="14" lengthAdjust="spacing" textLength="54" x="226.5" y="700.5332">valorFijo</text><line style="stroke:#181818;stroke-width:0.5;" x1="221.5" x2="382.5" y1="707.6094" y2="707.6094"/><text fill="#000000" font-family="sans-serif" font-size="14" lengthAdjust="spacing" textLength="151" x="226.5" y="726.1426">precioFinal(precioBase)</text></g><!--MD5=[2d551515c9cc00b1c93a49a14aad6db7]
class Liquidacion--><g id="elem_Liquidacion"><rect codeLine="23" fill="#F1F1F1" height="65.6094" id="Liquidacion" rx="2.5" ry="2.5" style="stroke:#181818;stroke-width:0.5;" width="163" x="418.5" y="658.5"/><ellipse cx="460.05" cy="674.5" fill="#ADD1B2" rx="11" ry="11" style="stroke:#181818;stroke-width:1.0;"/><path d="M462.05,671 Q462.2531,670.5 462.4875,670.25 Q462.7219,670 462.9875,670 Q463.4563,670 463.7531,670.2813 Q464.05,670.5625 464.05,671.2188 L464.05,672.7813 Q464.05,673.4375 463.7688,673.7188 Q463.4875,674 463.05,674 Q462.6594,674 462.4094,673.8281 Q462.1594,673.6563 462.05,673.2031 Q462.0031,672.8906 461.8313,672.7188 Q461.5188,672.3906 460.9563,672.2031 Q460.3938,672 459.8313,672 Q459.1281,672 458.5344,672.2813 Q457.9563,672.5625 457.5031,673.1875 Q457.05,673.8125 457.05,674.6719 L457.05,675.5938 Q457.05,676.625 457.8938,677.3125 Q458.7375,678 460.2375,678 Q461.1281,678 461.7531,677.7969 Q462.1125,677.6875 462.5188,677.3281 Q462.7844,677.125 462.925,677.0625 Q463.0656,677 463.2375,677 Q463.5656,677 463.8,677.2656 Q464.05,677.5156 464.05,677.875 Q464.05,678.2188 463.7063,678.625 Q463.2063,679.2188 462.4094,679.5469 Q461.3625,680 460.0813,680 Q458.5813,680 457.3781,679.4063 Q456.4094,678.9375 455.7219,677.9219 Q455.05,676.9063 455.05,675.7031 L455.05,674.6094 Q455.05,673.3594 455.6438,672.2656 Q456.2531,671.1719 457.3,670.5938 Q458.3625,670 459.55,670 Q460.2688,670 460.8938,670.25 Q461.5188,670.5 462.05,671 Z " fill="#000000"/><text fill="#000000" font-family="sans-serif" font-size="14" lengthAdjust="spacing" textLength="72" x="479.95" y="680.2285">Liquidacion</text><line style="stroke:#181818;stroke-width:0.5;" x1="419.5" x2="580.5" y1="690.5" y2="690.5"/><line style="stroke:#181818;stroke-width:0.5;" x1="419.5" x2="580.5" y1="698.5" y2="698.5"/><text fill="#000000" font-family="sans-serif" font-size="14" lengthAdjust="spacing" textLength="151" x="424.5" y="717.0332">precioFinal(precioBase)</text></g><!--MD5=[60dbf6945f26d51d7ef11e92d44c812f]
class Articulo--><g id="elem_Articulo"><rect codeLine="27" fill="#F1F1F1" height="100.8281" id="Articulo" rx="2.5" ry="2.5" style="stroke:#181818;stroke-width:0.5;" width="79" x="262.5" y="185"/><ellipse cx="277.5" cy="201" fill="#ADD1B2" rx="11" ry="11" style="stroke:#181818;stroke-width:1.0;"/><path d="M279.5,197.5 Q279.7031,197 279.9375,196.75 Q280.1719,196.5 280.4375,196.5 Q280.9063,196.5 281.2031,196.7813 Q281.5,197.0625 281.5,197.7188 L281.5,199.2813 Q281.5,199.9375 281.2188,200.2188 Q280.9375,200.5 280.5,200.5 Q280.1094,200.5 279.8594,200.3281 Q279.6094,200.1563 279.5,199.7031 Q279.4531,199.3906 279.2813,199.2188 Q278.9688,198.8906 278.4063,198.7031 Q277.8438,198.5 277.2813,198.5 Q276.5781,198.5 275.9844,198.7813 Q275.4063,199.0625 274.9531,199.6875 Q274.5,200.3125 274.5,201.1719 L274.5,202.0938 Q274.5,203.125 275.3438,203.8125 Q276.1875,204.5 277.6875,204.5 Q278.5781,204.5 279.2031,204.2969 Q279.5625,204.1875 279.9688,203.8281 Q280.2344,203.625 280.375,203.5625 Q280.5156,203.5 280.6875,203.5 Q281.0156,203.5 281.25,203.7656 Q281.5,204.0156 281.5,204.375 Q281.5,204.7188 281.1563,205.125 Q280.6563,205.7188 279.8594,206.0469 Q278.8125,206.5 277.5313,206.5 Q276.0313,206.5 274.8281,205.9063 Q273.8594,205.4375 273.1719,204.4219 Q272.5,203.4063 272.5,202.2031 L272.5,201.1094 Q272.5,199.8594 273.0938,198.7656 Q273.7031,197.6719 274.75,197.0938 Q275.8125,196.5 277,196.5 Q277.7188,196.5 278.3438,196.75 Q278.9688,197 279.5,197.5 Z " fill="#000000"/><text fill="#000000" font-family="sans-serif" font-size="14" lengthAdjust="spacing" textLength="47" x="291.5" y="206.7285">Articulo</text><line style="stroke:#181818;stroke-width:0.5;" x1="263.5" x2="340.5" y1="217" y2="217"/><text fill="#000000" font-family="sans-serif" font-size="14" lengthAdjust="spacing" textLength="45" x="268.5" y="235.5332">prenda</text><text fill="#000000" font-family="sans-serif" font-size="14" lengthAdjust="spacing" textLength="54" x="268.5" y="253.1426">cantidad</text><line style="stroke:#181818;stroke-width:0.5;" x1="263.5" x2="340.5" y1="260.2188" y2="260.2188"/><text fill="#000000" font-family="sans-serif" font-size="14" lengthAdjust="spacing" textLength="57" x="268.5" y="278.752">importe()</text></g><!--MD5=[fe4478d9c9a369b28097141e000aa656]
class Venta--><g id="elem_Venta"><rect codeLine="33" fill="#F1F1F1" height="118.4375" id="Venta" rx="2.5" ry="2.5" style="stroke:#181818;stroke-width:0.5;" width="159" x="222.5" y="7"/><ellipse cx="279.25" cy="23" fill="#ADD1B2" rx="11" ry="11" style="stroke:#181818;stroke-width:1.0;"/><path d="M281.25,19.5 Q281.4531,19 281.6875,18.75 Q281.9219,18.5 282.1875,18.5 Q282.6563,18.5 282.9531,18.7813 Q283.25,19.0625 283.25,19.7188 L283.25,21.2813 Q283.25,21.9375 282.9688,22.2188 Q282.6875,22.5 282.25,22.5 Q281.8594,22.5 281.6094,22.3281 Q281.3594,22.1563 281.25,21.7031 Q281.2031,21.3906 281.0313,21.2188 Q280.7188,20.8906 280.1563,20.7031 Q279.5938,20.5 279.0313,20.5 Q278.3281,20.5 277.7344,20.7813 Q277.1563,21.0625 276.7031,21.6875 Q276.25,22.3125 276.25,23.1719 L276.25,24.0938 Q276.25,25.125 277.0938,25.8125 Q277.9375,26.5 279.4375,26.5 Q280.3281,26.5 280.9531,26.2969 Q281.3125,26.1875 281.7188,25.8281 Q281.9844,25.625 282.125,25.5625 Q282.2656,25.5 282.4375,25.5 Q282.7656,25.5 283,25.7656 Q283.25,26.0156 283.25,26.375 Q283.25,26.7188 282.9063,27.125 Q282.4063,27.7188 281.6094,28.0469 Q280.5625,28.5 279.2813,28.5 Q277.7813,28.5 276.5781,27.9063 Q275.6094,27.4375 274.9219,26.4219 Q274.25,25.4063 274.25,24.2031 L274.25,23.1094 Q274.25,21.8594 274.8438,20.7656 Q275.4531,19.6719 276.5,19.0938 Q277.5625,18.5 278.75,18.5 Q279.4688,18.5 280.0938,18.75 Q280.7188,19 281.25,19.5 Z " fill="#000000"/><text fill="#000000" font-family="sans-serif" font-size="14" lengthAdjust="spacing" textLength="37" x="299.75" y="28.7285">Venta</text><line style="stroke:#181818;stroke-width:0.5;" x1="223.5" x2="380.5" y1="39" y2="39"/><text fill="#000000" font-family="sans-serif" font-size="14" lengthAdjust="spacing" textLength="53" x="228.5" y="57.5332">articulos</text><text fill="#000000" font-family="sans-serif" font-size="14" lengthAdjust="spacing" textLength="35" x="228.5" y="75.1426">fecha</text><line style="stroke:#181818;stroke-width:0.5;" x1="223.5" x2="380.5" y1="82.2188" y2="82.2188"/><text fill="#000000" font-family="sans-serif" font-size="14" lengthAdjust="spacing" textLength="57" x="228.5" y="100.752">importe()</text><text fill="#000000" font-family="sans-serif" font-size="14" lengthAdjust="spacing" textLength="147" x="228.5" y="118.3613">esDeFecha(unaFecha)</text></g><!--MD5=[4dcd44048f1d3c6188760d5889af0888]
class VentaTarjeta--><g id="elem_VentaTarjeta"><rect codeLine="40" fill="#F1F1F1" height="100.8281" id="VentaTarjeta" rx="2.5" ry="2.5" style="stroke:#181818;stroke-width:0.5;" width="114" x="417" y="15.5"/><ellipse cx="432" cy="31.5" fill="#ADD1B2" rx="11" ry="11" style="stroke:#181818;stroke-width:1.0;"/><path d="M434,28 Q434.2031,27.5 434.4375,27.25 Q434.6719,27 434.9375,27 Q435.4063,27 435.7031,27.2813 Q436,27.5625 436,28.2188 L436,29.7813 Q436,30.4375 435.7188,30.7188 Q435.4375,31 435,31 Q434.6094,31 434.3594,30.8281 Q434.1094,30.6563 434,30.2031 Q433.9531,29.8906 433.7813,29.7188 Q433.4688,29.3906 432.9063,29.2031 Q432.3438,29 431.7813,29 Q431.0781,29 430.4844,29.2813 Q429.9063,29.5625 429.4531,30.1875 Q429,30.8125 429,31.6719 L429,32.5938 Q429,33.625 429.8438,34.3125 Q430.6875,35 432.1875,35 Q433.0781,35 433.7031,34.7969 Q434.0625,34.6875 434.4688,34.3281 Q434.7344,34.125 434.875,34.0625 Q435.0156,34 435.1875,34 Q435.5156,34 435.75,34.2656 Q436,34.5156 436,34.875 Q436,35.2188 435.6563,35.625 Q435.1563,36.2188 434.3594,36.5469 Q433.3125,37 432.0313,37 Q430.5313,37 429.3281,36.4063 Q428.3594,35.9375 427.6719,34.9219 Q427,33.9063 427,32.7031 L427,31.6094 Q427,30.3594 427.5938,29.2656 Q428.2031,28.1719 429.25,27.5938 Q430.3125,27 431.5,27 Q432.2188,27 432.8438,27.25 Q433.4688,27.5 434,28 Z " fill="#000000"/><text fill="#000000" font-family="sans-serif" font-size="14" lengthAdjust="spacing" textLength="82" x="446" y="37.2285">VentaTarjeta</text><line style="stroke:#181818;stroke-width:0.5;" x1="418" x2="530" y1="47.5" y2="47.5"/><text fill="#000000" font-family="sans-serif" font-size="14" lengthAdjust="spacing" textLength="99" x="423" y="66.0332">cantidadCuotas</text><text fill="#000000" font-family="sans-serif" font-size="14" lengthAdjust="spacing" textLength="91" x="423" y="83.6426">coeficienteFijo</text><line style="stroke:#181818;stroke-width:0.5;" x1="418" x2="530" y1="90.7188" y2="90.7188"/><text fill="#000000" font-family="sans-serif" font-size="14" lengthAdjust="spacing" textLength="57" x="423" y="109.252">importe()</text></g><!--MD5=[0e042818c70d45771fe40bfa321eddc2]
class RegistroVentas--><g id="elem_RegistroVentas"><rect codeLine="46" fill="#F1F1F1" height="83.2188" id="RegistroVentas" rx="2.5" ry="2.5" style="stroke:#181818;stroke-width:0.5;" width="180" x="7" y="24.5"/><ellipse cx="44.95" cy="40.5" fill="#ADD1B2" rx="11" ry="11" style="stroke:#181818;stroke-width:1.0;"/><path d="M46.95,37 Q47.1531,36.5 47.3875,36.25 Q47.6219,36 47.8875,36 Q48.3563,36 48.6531,36.2813 Q48.95,36.5625 48.95,37.2188 L48.95,38.7813 Q48.95,39.4375 48.6688,39.7188 Q48.3875,40 47.95,40 Q47.5594,40 47.3094,39.8281 Q47.0594,39.6563 46.95,39.2031 Q46.9031,38.8906 46.7313,38.7188 Q46.4188,38.3906 45.8563,38.2031 Q45.2938,38 44.7313,38 Q44.0281,38 43.4344,38.2813 Q42.8563,38.5625 42.4031,39.1875 Q41.95,39.8125 41.95,40.6719 L41.95,41.5938 Q41.95,42.625 42.7938,43.3125 Q43.6375,44 45.1375,44 Q46.0281,44 46.6531,43.7969 Q47.0125,43.6875 47.4188,43.3281 Q47.6844,43.125 47.825,43.0625 Q47.9656,43 48.1375,43 Q48.4656,43 48.7,43.2656 Q48.95,43.5156 48.95,43.875 Q48.95,44.2188 48.6063,44.625 Q48.1063,45.2188 47.3094,45.5469 Q46.2625,46 44.9813,46 Q43.4813,46 42.2781,45.4063 Q41.3094,44.9375 40.6219,43.9219 Q39.95,42.9063 39.95,41.7031 L39.95,40.6094 Q39.95,39.3594 40.5438,38.2656 Q41.1531,37.1719 42.2,36.5938 Q43.2625,36 44.45,36 Q45.1688,36 45.7938,36.25 Q46.4188,36.5 46.95,37 Z " fill="#000000"/><text fill="#000000" font-family="sans-serif" font-size="14" lengthAdjust="spacing" textLength="97" x="64.05" y="46.2285">RegistroVentas</text><line style="stroke:#181818;stroke-width:0.5;" x1="8" x2="186" y1="56.5" y2="56.5"/><text fill="#000000" font-family="sans-serif" font-size="14" lengthAdjust="spacing" textLength="42" x="13" y="75.0332">ventas</text><line style="stroke:#181818;stroke-width:0.5;" x1="8" x2="186" y1="82.1094" y2="82.1094"/><text fill="#000000" font-family="sans-serif" font-size="14" lengthAdjust="spacing" textLength="168" x="13" y="100.6426">gananciasDeFecha(fecha)</text></g><!--MD5=[a806a82f9be5400425cc8654878392f7]
link RegistroVentas to Venta--><g id="link_RegistroVentas_Venta"><path codeLine="51" d="M187.09,66 C197.03,66 206.96,66 216.9,66 " fill="none" id="RegistroVentas-to-Venta" style="stroke:#181818;stroke-width:1.0;"/><polygon fill="#181818" points="222.1,66,213.1,62,217.1,66,213.1,70,222.1,66" style="stroke:#181818;stroke-width:1.0;"/><text fill="#000000" font-family="sans-serif" font-size="13" lengthAdjust="spacing" textLength="5" x="209.5038" y="62.7537">*</text></g><!--MD5=[a27194e573f73ec697c08b548b4d9b6b]
reverse link Venta to VentaTarjeta--><g id="link_Venta_VentaTarjeta"><path codeLine="52" d="M401.79,66 C406.85,66 411.92,66 416.98,66 " fill="none" id="Venta-backto-VentaTarjeta" style="stroke:#181818;stroke-width:1.0;"/><polygon fill="none" points="401.62,73,381.62,66,401.62,59,401.62,73" style="stroke:#181818;stroke-width:1.0;"/></g><!--MD5=[894b62c66234b0a4aea49ec1b2b5b870]
link Venta to Articulo--><g id="link_Venta_Articulo"><path codeLine="53" d="M302,125.11 C302,142.75 302,162.07 302,179.5 " fill="none" id="Venta-to-Articulo" style="stroke:#181818;stroke-width:1.0;"/><polygon fill="#181818" points="302,184.84,306,175.84,302,179.84,298,175.84,302,184.84" style="stroke:#181818;stroke-width:1.0;"/><text fill="#000000" font-family="sans-serif" font-size="13" lengthAdjust="spacing" textLength="5" x="296.6484" y="174.1229">*</text></g><!--MD5=[dcb13ec4808a72d0d45c06da8656fc83]
link Articulo to Prenda--><g id="link_Articulo_Prenda"><path codeLine="54" d="M302,286.3 C302,303.4 302,322.78 302,340.8 " fill="none" id="Articulo-to-Prenda" style="stroke:#181818;stroke-width:1.0;"/><polygon fill="#181818" points="302,345.84,306,336.84,302,340.84,298,336.84,302,345.84" style="stroke:#181818;stroke-width:1.0;"/></g><!--MD5=[7597833ef457365d4065de8b92496264]
link Prenda to Estado--><g id="link_Prenda_Estado"><path codeLine="55" d="M302,464.42 C302,482.6 302,502.15 302,518.5 " fill="none" id="Prenda-to-Estado" style="stroke:#181818;stroke-width:1.0;"/><polygon fill="#181818" points="302,523.92,306,514.92,302,518.92,298,514.92,302,523.92" style="stroke:#181818;stroke-width:1.0;"/></g><!--MD5=[f1367c045fe35bf17a584626da1f1f43]
reverse link Estado to Nueva--><g id="link_Estado_Nueva"><path codeLine="56" d="M237.35,601.26 C209.5,619.9 177.5,641.31 151.83,658.49 " fill="none" id="Estado-backto-Nueva" style="stroke:#181818;stroke-width:1.0;stroke-dasharray:7.0,7.0;"/><polygon fill="none" points="233.56,595.38,254.07,590.07,241.34,607.02,233.56,595.38" style="stroke:#181818;stroke-width:1.0;"/></g><!--MD5=[2a1fbeef1c47bd8a079f02f2909343f4]
reverse link Estado to Promocion--><g id="link_Estado_Promocion"><path codeLine="57" d="M302,610.34 C302,623.41 302,637.25 302,649.68 " fill="none" id="Estado-backto-Promocion" style="stroke:#181818;stroke-width:1.0;stroke-dasharray:7.0,7.0;"/><polygon fill="none" points="295,610.07,302,590.07,309,610.07,295,610.07" style="stroke:#181818;stroke-width:1.0;"/></g><!--MD5=[4a911394fbb304c8bbd15b7409e41cba]
reverse link Estado to Liquidacion--><g id="link_Estado_Liquidacion"><path codeLine="58" d="M366.65,601.26 C394.5,619.9 426.5,641.31 452.17,658.49 " fill="none" id="Estado-backto-Liquidacion" style="stroke:#181818;stroke-width:1.0;stroke-dasharray:7.0,7.0;"/><polygon fill="none" points="362.66,607.02,349.93,590.07,370.44,595.38,362.66,607.02" style="stroke:#181818;stroke-width:1.0;"/></g><!--MD5=[b6edee3eb57d30d6f6ef3b8ba89ec8ce]
@startuml

class Prenda {
  estado
  precioBase
  tipo

  precio()
}

interface Estado {
  precioFinal(precioBase)
}

class Nueva {
    precioFinal(precioBase)
}

class Promocion {
  valorFijo
  precioFinal(precioBase)
}

class Liquidacion {
    precioFinal(precioBase)
}

class Articulo {
  prenda
  cantidad
  importe()
}

class  Venta {
  articulos
  fecha
  importe()
  esDeFecha(unaFecha)
}

class VentaTarjeta {
  cantidadCuotas
  coeficienteFijo
  importe()
}

class RegistroVentas {
  ventas
  gananciasDeFecha(fecha)
}

RegistroVentas -right->"*" Venta
Venta <|-right- VentaTarjeta
Venta -down->"*" Articulo
Articulo -down-> Prenda
Prenda -down-> Estado
Estado <|.down. Nueva
Estado <|.down. Promocion
Estado <|.down. Liquidacion


@enduml

PlantUML version 1.2022.4(Sat Apr 09 10:29:17 ART 2022)
(GPL source distribution)
Java Runtime: OpenJDK Runtime Environment
JVM: OpenJDK 64-Bit Server VM
Default Encoding: Cp1252
Language: es
Country: AR
--></g></svg>